# xmcd CD database file
#
# Track frame offsets:
#	150
#	14325
#	35690
#	55210
#	77570
#	96043
#	110778
#	129910
#	145573
#	161650
#
# Disc length: 2297 seconds
#
# Revision: 0
# Processed by: cddbd v1.5.1PL0 Copyright (c) Steve Scherf et al.
# Submitted via: CDex 1.51
#
DISCID=7b08f70a
DTITLE=Ten City Run - Ten City Run
DYEAR=2004
DGENRE=Country
TTITLE0=Mama Tried
TTITLE1=Hiv Blues
TTITLE2=Memories
TTITLE3=To Grow So Cold
TTITLE4=City of Angels
TTITLE5=Wind is Blowing
TTITLE6=Easter '94
TTITLE7=Wind is Blowing (remix)
TTITLE8=Bleed
TTITLE9=Congratulations
EXTD=YEAR: 2004
EXTT0=
EXTT1=
EXTT2=
EXTT3=
EXTT4=
EXTT5=
EXTT6=
EXTT7=
EXTT8=
EXTT9=
PLAYORDER=
